<?xml version="1.0" encoding="UTF-8" standalone="no" ?>
<!DOCTYPE svg PUBLIC "-//W3C//DTD SVG 1.1//EN" "http://www.w3.org/Graphics/SVG/1.1/DTD/svg11.dtd">
<svg xmlns="http://www.w3.org/2000/svg" xmlns:xlink="http://www.w3.org/1999/xlink" version="1.1" width="1280" height="1024" viewBox="0 0 1280 1024" xml:space="preserve">
<desc>Created with Fabric.js 5.3.0</desc>
<defs>
</defs>
<g transform="matrix(1 0 0 1 640 512)" id="background-logo"  >
<rect style="stroke: none; stroke-width: 0; stroke-dasharray: none; stroke-linecap: butt; stroke-dashoffset: 0; stroke-linejoin: miter; stroke-miterlimit: 4; fill: rgb(255,255,255); fill-opacity: 0; fill-rule: nonzero; opacity: 1;"  paint-order="stroke"  x="-640" y="-512" rx="0" ry="0" width="1280" height="1024" />
</g>
<g transform="matrix(3.2029886441715405 0 0 3.1149214308327755 640.5021334107767 512.4017067286213)" id="logo-logo"  >
<g style=""  paint-order="stroke"   >
		<g transform="matrix(0.21332024392943436 0 0 -0.21332024392943438 -3.774896470900785 -38.23850700532685)"  >
<path style="stroke: none; stroke-width: 1; stroke-dasharray: none; stroke-linecap: butt; stroke-dashoffset: 0; stroke-linejoin: miter; stroke-miterlimit: 4; fill: rgb(0,0,0); fill-rule: nonzero; opacity: 1;"  paint-order="stroke"  transform=" translate(-804.8995709548499, -603.1821497657884)" d="M 380.086 757.699 C 372.676 756.895 366.02000000000004 753.246 361.32800000000003 747.406 L 83.4141 399.738 C 73.3828 387.258 53.777300000000004 385.051 41.2383 395.109 C 34.9883 400.121 31.0625 407.27 30.1914 415.238 C 29.3125 423.203 31.5898 431.031 36.625 437.301 L 314.539 784.973 C 330.133 804.406 352.461 816.0269999999999 377.40999999999997 817.688 C 379.188 817.805 380.96099999999996 817.8629999999999 382.734 817.8629999999999 C 402.988 817.8629999999999 423.64799999999997 810.188 440.90599999999995 796.2539999999999 L 710.824 578.3239999999998 C 716.8549999999999 573.4529999999999 724.977 571.2849999999999 732.4839999999999 572.4409999999998 L 1545.33 694.4839999999998 C 1561.85 696.9839999999998 1577.04 685.3089999999999 1579.4499999999998 669.2699999999998 C 1580.6399999999999 661.3439999999997 1578.6699999999998 653.4299999999997 1573.9199999999998 646.9839999999997 C 1569.1499999999999 640.5349999999997 1562.1699999999998 636.3319999999997 1554.2399999999998 635.1479999999997 L 741.387 513.105 C 717.309 509.48400000000004 692.055 516.359 673.1329999999999 531.6370000000001 L 400.625 751.664 C 395.605 755.723 389.57 757.871 383.172 757.871 C 382.03900000000004 757.871 380.98 757.805 380.086 757.699 z M 654.285 508.297 C 679.672 487.793 713.539 478.586 745.8439999999999 483.43800000000005 L 1558.69 605.48 C 1574.54 607.855 1588.52 616.266 1598.04 629.1560000000001 C 1607.57 642.0430000000001 1611.5 657.8710000000001 1609.12 673.7230000000001 C 1604.31 705.773 1573.9799999999998 729.1410000000001 1540.8799999999999 724.152 L 728.98 602.227 L 459.754 819.594 C 435.14500000000004 839.465 405.098 849.5740000000001 375.418 847.6170000000001 C 341.98 845.3950000000001 312.051 829.8090000000001 291.121 803.7230000000001 L 13.207 456.051 C 3.17969 443.551 -1.38281 427.891 0.367188 411.965 C 2.11719 396.031 9.96484 381.738 22.4688 371.711 C 33.082 363.195 46.4023 358.516 59.9844 358.50800000000004 C 78.2969 358.50800000000004 95.3672 366.699 106.828 380.98800000000006 L 383.422 726.996 L 654.285 508.297" stroke-linecap="round" />
</g>
		<g transform="matrix(0.21332024392943436 0 0 -0.21332024392943438 -74.90100717958293 -10.212389255462625)"  >
<path style="stroke: none; stroke-width: 1; stroke-dasharray: none; stroke-linecap: butt; stroke-dashoffset: 0; stroke-linejoin: miter; stroke-miterlimit: 4; fill: rgb(0,0,0); fill-rule: nonzero; opacity: 1;"  paint-order="stroke"  transform=" translate(-471.475469245073, -471.8016617557747)" d="M 495.688 500.348 L 501.996 452.988 L 447.25 443.328 L 440.945 490.625 z M 443.23 412.539 C 444.66 412.539 446.10900000000004 412.65999999999997 447.555 412.92199999999997 L 512.875 424.445 C 525.59 426.691 534.207 438.457 532.5 451.215 L 524.77 509.22999999999996 C 522.93 523.0899999999999 509.54699999999997 533.18 495.39799999999997 530.684 L 430.074 519.16 C 417.37100000000004 516.914 408.75 505.15599999999995 410.449 492.38699999999994 L 418.18 434.36699999999996 C 419.844 421.926 430.613 412.539 443.23 412.539" stroke-linecap="round" />
</g>
		<g transform="matrix(0.21332024392943436 0 0 -0.21332024392943438 -101.98325623047407 25.206431610737695)"  >
<path style="stroke: none; stroke-width: 1; stroke-dasharray: none; stroke-linecap: butt; stroke-dashoffset: 0; stroke-linejoin: miter; stroke-miterlimit: 4; fill: rgb(0,0,0); fill-rule: nonzero; opacity: 1;"  paint-order="stroke"  transform=" translate(-344.5196372432597, -305.7657515497244)" d="M 368.734 334.309 L 375.043 286.94100000000003 L 320.297 277.285 L 313.992 324.57800000000003 z M 291.227 268.32800000000003 C 292.87899999999996 255.89100000000002 303.652 246.50400000000002 316.28499999999997 246.50400000000002 C 317.71099999999996 246.50400000000002 319.145 246.621 320.594 246.87500000000003 L 385.906 258.398 C 398.617 260.637 407.246 272.39500000000004 405.547 285.17600000000004 L 397.81600000000003 343.20300000000003 C 395.96500000000003 357.05100000000004 382.73800000000006 367.141 368.44100000000003 364.648 L 303.13300000000004 353.125 C 290.41 350.891 281.78100000000006 339.121 283.49600000000004 326.348 L 291.22700000000003 268.32800000000003" stroke-linecap="round" />
</g>
		<g transform="matrix(0.21332024392943436 0 0 -0.21332024392943438 -106.16042219467488 -4.7397416497747145)"  >
<path style="stroke: none; stroke-width: 1; stroke-dasharray: none; stroke-linecap: butt; stroke-dashoffset: 0; stroke-linejoin: miter; stroke-miterlimit: 4; fill: rgb(0,0,0); fill-rule: nonzero; opacity: 1;"  paint-order="stroke"  transform=" translate(-324.93797032193993, -446.1470520249786)" d="M 349.148 474.688 L 355.46500000000003 427.328 L 300.71900000000005 417.67199999999997 L 294.41 464.965 z M 301.016 387.258 L 366.34400000000005 398.777 C 379.04300000000006 401.02299999999997 387.66800000000006 412.789 385.96500000000003 425.563 L 378.23 483.57 C 376.391 497.42199999999997 363.094 507.53499999999997 348.863 505.02299999999997 L 283.551 493.508 C 270.836 491.27 262.211 479.512 263.90999999999997 466.727 L 271.645 408.715 C 273.301 396.27 284.07 386.887 296.703 386.887 C 298.125 386.887 299.566 387.004 301.01599999999996 387.258" stroke-linecap="round" />
</g>
		<g transform="matrix(0.21332024392943436 0 0 -0.21332024392943438 -70.72408493010602 19.732613270509432)"  >
<path style="stroke: none; stroke-width: 1; stroke-dasharray: none; stroke-linecap: butt; stroke-dashoffset: 0; stroke-linejoin: miter; stroke-miterlimit: 4; fill: rgb(0,0,0); fill-rule: nonzero; opacity: 1;"  paint-order="stroke"  transform=" translate(-491.05599368352546, -331.42584943541294)" d="M 515.27 359.973 L 521.586 312.60900000000004 L 466.836 302.949 L 460.527 350.246 z M 437.762 294.004 C 439.414 281.555 450.18 272.168 462.809 272.16 C 464.242 272.16 465.69100000000003 272.285 467.129 272.53900000000004 L 532.465 284.06300000000005 C 545.164 286.32000000000005 553.7810000000001 298.07800000000003 552.086 310.84000000000003 L 544.352 368.84000000000003 C 542.516 382.70300000000003 529.336 392.81600000000003 514.98 390.309 L 449.637 378.781 C 436.941 376.523 428.328 364.766 430.027 352.004 L 437.762 294.004" stroke-linecap="round" />
</g>
		<g transform="matrix(0.21332024392943436 0 0 -0.21332024392943438 11.868615383710846 30.00736402114015)"  >
<path style="stroke: none; stroke-width: 1; stroke-dasharray: none; stroke-linecap: butt; stroke-dashoffset: 0; stroke-linejoin: miter; stroke-miterlimit: 4; fill: rgb(0,0,0); fill-rule: nonzero; opacity: 1;"  paint-order="stroke"  transform=" translate(-878.2330322637843, -283.26000000000005)" d="M 1589.65 476.848 L 1553.26 471.582 C 1538.8 469.488 1528.83 455.977 1531.1 441.53499999999997 L 1546.3799999999999 344.44499999999994 C 1548.9299999999998 328.09799999999996 1537.7299999999998 312.7029999999999 1521.3899999999999 310.13699999999994 C 1514.79 309.1209999999999 1508.37 310.13699999999994 1502.12 313.89799999999997 C 1493.54 319.051 1488.1699999999998 328.26199999999994 1486.61 338.145 L 1473.56 421.14099999999996 C 1470.28 442.02 1450.76 456.332 1429.86 453.191 C 1408.76 450.02 1394.27 430.27 1397.59 409.188 L 1400.51 390.688 C 1401.5 384.383 1400.97 377.781 1398.2 372.031 C 1393.76 362.82 1385.46 356.734 1375.7 355.195 C 1359.1200000000001 352.656 1343.93 364.191 1341.41 380.164 L 1338.2 400.621 C 1334.91 421.566 1315.28 435.89799999999997 1294.3300000000002 432.65599999999995 L 1294.2200000000003 432.64099999999996 C 1273.2000000000003 429.38699999999994 1258.8200000000002 409.67999999999995 1262.1200000000003 388.66799999999995 L 1275.6500000000003 302.66399999999993 C 1276.6400000000003 296.3589999999999 1276.1200000000003 289.7579999999999 1273.3500000000004 284.0079999999999 C 1268.9100000000003 274.7969999999999 1260.6000000000004 268.70699999999994 1250.8600000000004 267.16799999999995 C 1234.0400000000004 264.6089999999999 1219.1100000000004 275.92999999999995 1216.5500000000004 292.14799999999997 L 1200.8400000000004 392.08599999999996 C 1198.5900000000004 406.328 1185.2800000000004 416.09799999999996 1171.0200000000004 413.95699999999994 L 723.465 346.719 C 707.121 344.262 695.473 328.84 697.59 312.445 L 713.445 189.434 C 719.711 140.91 686.797 96.5234 638.652 88.4297 L 278.629 31.2617 C 273.828 30.4492 268.883 30.0313 263.949 30 L 263.60200000000003 15 L 263.60200000000003 30 C 219.27300000000002 30 181.67600000000004 61.7305 174.18400000000003 105.586 L 141.68800000000002 285.566 C 138.906 301.875 149.906 317.40999999999997 166.21900000000002 320.195 C 167.93400000000003 320.488 169.645 320.637 171.32800000000003 320.637 C 185.96100000000004 320.637 198.37100000000004 310.137 200.86700000000002 295.527 L 233.35500000000002 115.559 C 236.133 99.1719 251.67600000000002 87.6875 268.57000000000005 90.4023 L 628.59 147.578 C 644.918 150.332 656.051 165.344 653.941 181.77 L 638.078 304.773 C 631.832 353.223 666.242 398.797 714.5509999999999 406.055 L 1580.73 536.184 C 1597.35 538.6759999999999 1612.44 527.0079999999999 1614.85 510.977 C 1617.31 494.613 1606.01 479.30899999999997 1589.6499999999999 476.84799999999996 z M 1644.52 515.4300000000001 C 1640.15 544.5550000000001 1614.66 566.5200000000001 1585.24 566.5200000000001 C 1582.27 566.5200000000001 1579.25 566.2930000000001 1576.28 565.8520000000001 L 710.094 435.723 C 645.645 426.035 599.988 365.566 608.324 300.938 L 623.742 177.188 L 263.703 120.01999999999998 L 262.90599999999995 120.73399999999998 L 230.41399999999996 300.72299999999996 C 225.47699999999995 329.64099999999996 200.62499999999994 350.63699999999994 171.32799999999997 350.63699999999994 C 167.938 350.63699999999994 164.51999999999998 350.34399999999994 161.164 349.76599999999996 C 128.559 344.19899999999996 106.55099999999999 313.145 112.14499999999998 280.383 L 144.637 100.391 C 154.57 42.2266 204.605 0 263.602 0 L 264.08599999999996 0 C 270.64799999999997 0.0390625 277.215 0.597656 283.47299999999996 1.65234 L 643.496 58.8203 C 707.7379999999999 69.6289 751.535 128.691 743.203 193.273 L 727.9259999999999 317.051 L 1162.07 382.27 C 1167.4399999999998 383.078 1172.47 379.395 1173.31 374.02 L 1186.9199999999998 287.47999999999996 C 1191.5399999999997 258.11699999999996 1216.4499999999998 236.79699999999997 1246.1399999999999 236.79699999999997 C 1249.2599999999998 236.79699999999997 1252.4099999999999 237.05099999999996 1255.5099999999998 237.53899999999996 C 1273.1499999999999 240.30499999999995 1288.4099999999999 250.54699999999997 1297.7499999999998 266.09399999999994 C 1305.3099999999997 278.69499999999994 1307.3999999999999 293.86299999999994 1305.1099999999997 308.38699999999994 L 1291.7699999999998 393.28099999999995 C 1291.0499999999997 397.87499999999994 1294.1499999999999 402.19899999999996 1298.7299999999998 402.97999999999996 C 1303.4099999999999 403.78099999999995 1307.8299999999997 400.60499999999996 1308.5599999999997 395.926 L 1311.7799999999997 375.508 C 1316.3999999999996 346.145 1341.2999999999997 324.82399999999996 1370.9899999999998 324.82399999999996 C 1374.1099999999997 324.82399999999996 1377.2699999999998 325.078 1380.3599999999997 325.566 C 1398.0099999999998 328.328 1413.2699999999998 338.57 1422.5999999999997 354.11699999999996 C 1430.1699999999996 366.71899999999994 1432.2499999999998 381.88699999999994 1429.9699999999996 396.40599999999995 L 1427.2299999999996 413.85499999999996 C 1426.4999999999995 418.48799999999994 1429.6799999999996 422.828 1434.3199999999995 423.527 C 1438.9199999999994 424.219 1443.2099999999996 421.07 1443.9299999999994 416.47999999999996 L 1457.4599999999994 330.44899999999996 C 1462.0799999999992 301.08599999999996 1486.9799999999993 279.76599999999996 1516.6699999999994 279.76599999999996 C 1519.7899999999993 279.76599999999996 1522.9499999999994 280.02 1526.0399999999993 280.508 C 1558.7299999999993 285.637 1581.1399999999992 316.406 1576.0099999999993 349.102 L 1562.8699999999992 432.652 C 1562.0099999999993 438.121 1565.7999999999993 443.22999999999996 1571.2799999999993 443.996 L 1594.0999999999992 447.18 C 1626.8199999999993 452.10200000000003 1649.4299999999992 482.71500000000003 1644.5199999999993 515.4300000000001" stroke-linecap="round" />
</g>
</g>
</g>
</svg>